<svg id="Capa_1" enable-background="new 0 0 512 512" height="512" viewBox="0 0 512 512" width="512" xmlns="http://www.w3.org/2000/svg"><g><g><g><g><g><g><g><g><g><circle cx="256" cy="256" fill="#ffce00" r="256"/></g></g></g></g></g></g></g></g><path d="m512 256c0-20.837-2.49-41.093-7.188-60.486l-99.671-99.671-131.953 121.074-117.857-117.858-48.472 42.397 118.941 118.941-121.118 111.132 37.395 37.395-1.013 1.541 101.17 101.17c4.558.242 9.148.365 13.766.365 141.385 0 256-114.615 256-256z" fill="#ffa300"/><g><g><path d="m152.472 95.843c12.596 12.596 25.957 46.379 13.361 58.974s-46.379-.766-58.975-13.362-12.596-33.017 0-45.613 33.018-12.595 45.614.001z" fill="#555a66"/></g><g><path d="m359.528 95.843c-12.596 12.596-25.957 46.379-13.361 58.974s46.379-.766 58.975-13.362 12.596-33.017 0-45.613-33.018-12.595-45.614.001z" fill="#333940"/></g></g><g><path d="m326.222 428.349h-140.444c-35.811 0-64.841-29.03-64.841-64.841v-183.874c0-42.215 34.222-76.437 76.437-76.437h117.253c42.215 0 76.437 34.222 76.437 76.437v183.874c-.001 35.811-29.031 64.841-64.842 64.841z" fill="#707789"/></g><g><path d="m314.626 103.198h-58.506v325.152h70.101c35.811 0 64.841-29.031 64.841-64.841v-183.874c.001-42.215-34.221-76.437-76.436-76.437z" fill="#555a66"/></g><g><path d="m388.57 378.989h-265.14c-15.088 0-27.319-12.231-27.319-27.319v-71.374c0-28.391 23.015-51.406 51.406-51.406h216.964c28.391 0 51.406 23.015 51.406 51.406v71.374c.001 15.088-12.23 27.319-27.317 27.319z" fill="#555a66"/></g><g><path d="m364.482 228.89h-108.361v150.099h132.449c15.088 0 27.319-12.231 27.319-27.319v-71.374c-.001-28.391-23.016-51.406-51.407-51.406z" fill="#333940"/></g><g><g><circle cx="184.652" cy="302.962" fill="#333940" r="29.321"/></g><g><circle cx="327.348" cy="302.962" fill="#0a0b0c" r="29.321"/></g></g><g><g><circle cx="190.131" cy="185.026" fill="#333940" r="16.778"/></g><g><circle cx="321.869" cy="185.026" fill="#0a0b0c" r="16.778"/></g></g></g></svg>
