<svg id="pencil-award" enable-background="new 0 0 300 300" height="512" viewBox="0 0 300 300" width="512" xmlns="http://www.w3.org/2000/svg"><g><circle cx="123.266" cy="182.828" fill="#ffc7c7" r="86"/><g><path d="m121.98 165.038c11.657 16.207 19.724 34.713 23.663 54.284l3.623 18.003 3.818-18.677c3.992-19.529 12.097-37.985 23.775-54.139l14.407-19.93-14-39.751h-56l-14 39.751zm27.286-40.21c6.627 0 12 5.373 12 12s-5.373 12-12 12-12-5.373-12-12 5.373-12 12-12z" fill="#ffce56"/><path d="m149.266 241.324c-.002 0-.004 0-.006 0-1.902-.004-3.541-1.344-3.916-3.211l-3.623-18.004c-3.852-19.141-11.586-36.883-22.988-52.734l-14.715-20.461c-.764-1.062-.959-2.43-.525-3.664l14-39.75c.564-1.602 2.076-2.672 3.773-2.672h56c1.697 0 3.209 1.07 3.773 2.672l14 39.75c.436 1.238.236 2.609-.531 3.672l-14.406 19.93c-11.422 15.801-19.193 33.5-23.1 52.598l-3.818 18.676c-.379 1.862-2.017 3.198-3.918 3.198zm-24.037-78.621c11.809 16.422 19.902 34.754 24.066 54.52 4.174-19.98 12.355-38.5 24.322-55.059l13.18-18.23-12.363-35.105h-50.336l-12.365 35.109zm24.037-9.875c-8.822 0-16-7.176-16-16s7.178-16 16-16 16 7.176 16 16-7.178 16-16 16zm0-24c-4.412 0-8 3.59-8 8s3.588 8 8 8 8-3.59 8-8-3.588-8-8-8z" fill="#4c241d"/></g><g><path d="m121.266 88.828h56v16h-56z" fill="#b5a19c" transform="matrix(-1 0 0 -1 298.532 193.656)"/><path d="m177.266 108.828h-56c-2.209 0-4-1.789-4-4v-16c0-2.211 1.791-4 4-4h56c2.209 0 4 1.789 4 4v16c0 2.211-1.791 4-4 4zm-52-8h48v-8h-48z" fill="#4c241d"/></g><g><path d="m185.266 60.828v20.206c0 4.304-3.489 7.794-7.794 7.794h-56.412c-4.304 0-7.794-3.489-7.794-7.794v-20.206" fill="#9dc1e4"/><path d="m177.473 92.828h-56.414c-6.502 0-11.793-5.289-11.793-11.793v-20.207c0-2.211 1.791-4 4-4s4 1.789 4 4v20.207c0 2.09 1.701 3.793 3.793 3.793h56.414c2.092 0 3.793-1.703 3.793-3.793v-20.207c0-2.211 1.791-4 4-4s4 1.789 4 4v20.207c0 6.504-5.291 11.793-11.793 11.793z" fill="#4c241d"/></g><g><path d="m149.266 232.828v-64" fill="#fff"/><path d="m149.266 236.828c-2.209 0-4-1.789-4-4v-64c0-2.211 1.791-4 4-4s4 1.789 4 4v64c0 2.211-1.791 4-4 4z" fill="#4c241d"/></g><g fill="#4c241d"><path d="m234.922 50.484c-1.023 0-2.047-.391-2.828-1.172l-11.312-11.312c-1.562-1.562-1.562-4.094 0-5.656s4.094-1.562 5.656 0l11.312 11.312c1.562 1.562 1.562 4.094 0 5.656-.781.782-1.804 1.172-2.828 1.172z"/><path d="m223.61 50.484c-1.023 0-2.047-.391-2.828-1.172-1.562-1.562-1.562-4.094 0-5.656l11.312-11.312c1.562-1.562 4.094-1.562 5.656 0s1.562 4.094 0 5.656l-11.312 11.312c-.781.782-1.805 1.172-2.828 1.172z"/><circle cx="81.266" cy="60.828" r="4"/><path d="m188.747 268.027c-.156 0-.311-.008-.469-.027-107.145-12.484-114.043-127.695-114.102-128.859-.107-2.203 1.592-4.078 3.797-4.188 2.189-.129 4.082 1.586 4.193 3.793.016.277 1.557 27.957 15.619 56.633 18.643 38.02 49.398 59.777 91.418 64.676 2.195.254 3.766 2.242 3.51 4.438-.236 2.034-1.964 3.534-3.966 3.534z"/></g><g><path d="m55.453 117.584c2.606 15.79 19.306 26.182 19.306 26.182s12.474-15.208 9.867-30.998c-2.606-15.79-19.306-26.182-19.306-26.182s-12.473 15.208-9.867 30.998z" fill="#a9ba5a"/><path d="m74.756 147.766c-.725 0-1.457-.195-2.111-.605-.744-.461-18.271-11.547-21.139-28.926-2.869-17.379 10.166-33.508 10.723-34.184 1.27-1.555 3.496-1.93 5.205-.859.744.461 18.27 11.547 21.141 28.926 2.867 17.379-10.168 33.508-10.725 34.184-.783.956-1.93 1.464-3.094 1.464zm-8.511-55.578c-3.16 4.875-8.479 14.844-6.844 24.742 1.633 9.902 9.873 17.633 14.434 21.234 3.16-4.875 8.48-14.844 6.846-24.742-1.636-9.902-9.876-17.633-14.436-21.234z" fill="#4c241d"/></g><g><path d="m48.62 158.571c12.335 10.197 31.754 7.068 31.754 7.068s-.58-19.661-12.914-29.857-31.754-7.068-31.754-7.068.579 19.66 12.914 29.857z" fill="#a9ba5a"/><path d="m73.397 170.098c-7.406 0-18.746-1.355-27.326-8.445-13.574-11.219-14.338-31.941-14.363-32.82-.059-2.008 1.379-3.746 3.361-4.066.865-.137 21.365-3.285 34.939 7.934s14.338 31.941 14.363 32.82c.059 2.008-1.379 3.746-3.361 4.066-.318.05-3.299.511-7.613.511zm-22.229-14.61c7.777 6.426 19.055 6.859 24.83 6.539-.816-5.746-3.352-16.77-11.088-23.164-7.732-6.387-19.029-6.789-24.828-6.531.817 5.75 3.354 16.766 11.086 23.156z" fill="#4c241d"/></g><g><path d="m55.849 188.112c14.654 6.433 32.476-1.889 32.476-1.889s-5.937-18.752-20.59-25.185c-14.654-6.433-32.476 1.889-32.476 1.889s5.936 18.752 20.59 25.185z" fill="#a9ba5a"/><path d="m68.401 194.555c-4.615 0-9.5-.734-14.16-2.777-16.127-7.082-22.531-26.809-22.795-27.645-.607-1.914.301-3.98 2.121-4.832.793-.367 19.646-9 35.775-1.926 16.127 7.082 22.531 26.805 22.795 27.641.607 1.914-.301 3.98-2.119 4.832-.566.261-10.264 4.707-21.617 4.707zm-10.945-10.106c9.236 4.062 20.188 1.359 25.674-.5-2.357-5.305-7.812-15.211-17.002-19.246-9.186-4.035-20.166-1.348-25.67.504 2.359 5.309 7.814 15.211 16.998 19.242z" fill="#4c241d"/></g><g><path d="m67.971 214.711c15.244 4.872 32.102-5.261 32.102-5.261s-7.857-18.032-23.101-22.904-32.102 5.261-32.102 5.261 7.857 18.032 23.101 22.904z" fill="#a9ba5a"/><path d="m76.887 220.035c-3.322 0-6.75-.434-10.133-1.516-16.777-5.359-25.201-24.309-25.551-25.113-.803-1.84-.115-3.992 1.605-5.027.75-.453 18.609-11.012 35.381-5.641 16.777 5.359 25.199 24.309 25.551 25.113.801 1.84.113 3.992-1.607 5.027-.599.36-12.097 7.157-25.246 7.157zm-26.613-26.508c2.896 5.031 9.354 14.316 18.914 17.375 9.609 3.066 20.219-.746 25.482-3.172-2.898-5.031-9.354-14.316-18.914-17.375-9.597-3.062-20.216.75-25.482 3.172z" fill="#4c241d"/></g><g><path d="m78.178 238.401c15.989-.68 28.323-16.002 28.323-16.002s-13.59-14.219-29.579-13.539-28.323 16.002-28.323 16.002 13.59 14.219 29.579 13.539z" fill="#a9ba5a"/><path d="m77.061 242.426c-17.008 0-30.762-14.18-31.354-14.797-1.387-1.453-1.482-3.707-.225-5.273.551-.684 13.672-16.746 31.27-17.492 17.715-.785 32.035 14.141 32.641 14.77 1.387 1.453 1.482 3.707.225 5.273-.551.684-13.672 16.746-31.27 17.492l-.17-3.996.17 3.996c-.431.019-.861.027-1.287.027zm-22.797-17.809c4.453 3.723 13.656 10.141 23.744 9.789 10.076-.43 18.721-7.672 22.828-11.762-4.455-3.723-13.711-10.188-23.744-9.789-10.076.43-18.72 7.672-22.828 11.762z" fill="#4c241d"/></g><path d="m111.252 268.027c-2.002 0-3.73-1.5-3.967-3.535-.256-2.195 1.314-4.184 3.51-4.438 42.02-4.898 72.777-26.656 91.418-64.676 14.062-28.676 15.604-56.355 15.619-56.633.109-2.207 2.025-3.914 4.193-3.793 2.205.109 3.904 1.984 3.797 4.188-.059 1.164-6.955 116.375-114.102 128.859-.155.021-.311.028-.468.028z" fill="#4c241d"/><g><path d="m244.546 117.584c-2.606 15.79-19.306 26.182-19.306 26.182s-12.474-15.208-9.867-30.998c2.606-15.79 19.306-26.182 19.306-26.182s12.474 15.208 9.867 30.998z" fill="#a9ba5a"/><path d="m225.243 147.766c-1.164 0-2.311-.508-3.094-1.465-.557-.676-13.592-16.805-10.723-34.184 2.867-17.379 20.395-28.465 21.139-28.926 1.707-1.066 3.934-.695 5.205.859.557.676 13.592 16.805 10.723 34.184-2.867 17.379-20.395 28.465-21.139 28.926-.654.41-1.387.606-2.111.606zm8.517-55.586c-4.557 3.598-12.807 11.336-14.439 21.242-1.645 9.949 3.674 19.891 6.838 24.75 4.557-3.598 12.807-11.336 14.439-21.242 1.645-9.95-3.674-19.891-6.838-24.75z" fill="#4c241d"/></g><g><path d="m251.379 158.571c-12.335 10.197-31.754 7.068-31.754 7.068s.58-19.661 12.914-29.857 31.754-7.068 31.754-7.068-.579 19.66-12.914 29.857z" fill="#a9ba5a"/><path d="m226.602 170.098c-4.316 0-7.295-.461-7.613-.512-1.982-.32-3.42-2.059-3.361-4.066.025-.879.789-21.602 14.363-32.82 13.58-11.223 34.08-8.066 34.939-7.934 1.982.32 3.42 2.059 3.361 4.066-.025.879-.789 21.602-14.363 32.82-8.576 7.09-19.92 8.446-27.326 8.446zm-2.6-8.078c5.793.273 17.096-.141 24.828-6.531s10.27-17.406 11.086-23.156c-5.787-.254-17.096.145-24.828 6.531-7.732 6.39-10.269 17.406-11.086 23.156z" fill="#4c241d"/></g><g><path d="m244.15 188.112c-14.654 6.433-32.476-1.889-32.476-1.889s5.937-18.752 20.59-25.185c14.654-6.433 32.476 1.889 32.476 1.889s-5.936 18.752-20.59 25.185z" fill="#a9ba5a"/><path d="m231.598 194.555c-11.355 0-21.051-4.445-21.617-4.707-1.818-.852-2.727-2.918-2.119-4.832.264-.836 6.668-20.559 22.795-27.641 16.125-7.066 34.982 1.562 35.775 1.926 1.82.852 2.729 2.918 2.123 4.832-.266.836-6.668 20.562-22.797 27.645-4.658 2.042-9.547 2.777-14.16 2.777zm-14.734-10.617c5.5 1.855 16.479 4.555 25.68.512 9.186-4.031 14.639-13.934 16.998-19.242-5.506-1.852-16.482-4.539-25.67-.504-9.233 4.05-14.664 13.933-17.008 19.234z" fill="#4c241d"/></g><g><path d="m232.028 214.711c-15.244 4.872-32.102-5.261-32.102-5.261s7.857-18.032 23.101-22.904 32.102 5.261 32.102 5.261-7.857 18.032-23.101 22.904z" fill="#a9ba5a"/><path d="m223.112 220.035c-13.148 0-24.646-6.797-25.246-7.156-1.721-1.035-2.408-3.188-1.605-5.027.35-.805 8.773-19.754 25.551-25.113 16.775-5.363 34.629 5.191 35.379 5.641 1.721 1.035 2.408 3.188 1.605 5.027-.35.805-8.773 19.754-25.551 25.113-3.383 1.082-6.811 1.515-10.133 1.515zm-17.785-12.316c5.275 2.418 15.918 6.227 25.484 3.184 9.605-3.07 16.037-12.336 18.918-17.363-5.275-2.414-15.918-6.227-25.484-3.184-9.606 3.07-16.037 12.335-18.918 17.363z" fill="#4c241d"/></g><g><path d="m221.821 238.401c-15.989-.68-28.323-16.002-28.323-16.002s13.59-14.219 29.579-13.539 28.323 16.002 28.323 16.002-13.59 14.219-29.579 13.539z" fill="#a9ba5a"/><path d="m222.938 242.426c-.428 0-.855-.008-1.287-.027-17.596-.746-30.719-16.809-31.268-17.492-1.26-1.562-1.164-3.82.223-5.273.607-.633 15.045-15.598 32.641-14.77 17.598.746 30.721 16.809 31.27 17.492 1.26 1.562 1.164 3.82-.223 5.273-.592.617-14.346 14.797-31.356 14.797zm-.947-8.02c10.016.324 19.279-6.059 23.738-9.785-4.125-4.09-12.799-11.34-22.822-11.766-10.094-.359-19.305 6.055-23.742 9.777 4.121 4.091 12.798 11.348 22.826 11.774z" fill="#4c241d"/></g></g></svg>